HIERARCHY
ROOT Hips
{
	OFFSET 0.000000 0.000000 0.000000
	CHANNELS 6 Xposition Yposition Zposition Zrotation Yrotation Xrotation 
	JOINT LowerBack
	{
		OFFSET 0.000000 0.000000 0.000000
		CHANNELS 3 Zrotation Yrotation Xrotation
		JOINT Spine
		{
			OFFSET 0.028270 2.035590 -0.193380
			CHANNELS 3 Zrotation Yrotation Xrotation
			JOINT Spine1
			{
				OFFSET 0.056720 2.048850 -0.042750
				CHANNELS 3 Zrotation Yrotation Xrotation
				JOINT Neck
				{
					OFFSET 0.000000 0.000000 0.000000
					CHANNELS 3 Zrotation Yrotation Xrotation
					JOINT Neck1
					{
						OFFSET -0.054170 1.746240 0.172020
						CHANNELS 3 Zrotation Yrotation Xrotation
						JOINT Head
						{
							OFFSET 0.104070 1.761360 -0.123970
							CHANNELS 3 Zrotation Yrotation Xrotation
							End Site
							{
								OFFSET 0.000000 0.000000 0.000000
							}
						}
					}
				}
				JOINT LeftShoulder
				{
					OFFSET 0.000000 0.000000 0.000000
					CHANNELS 3 Zrotation Yrotation Xrotation
					JOINT LeftArm
					{
						OFFSET 3.362410 1.200890 -0.311210
						CHANNELS 3 Zrotation Yrotation Xrotation
						JOINT LeftForeArm
						{
							OFFSET 4.983000 -0.000000 -0.000000
							CHANNELS 3 Zrotation Yrotation Xrotation
							JOINT LeftHand
							{
								OFFSET 3.483560 -0.000000 -0.000000
								CHANNELS 3 Zrotation Yrotation Xrotation
								JOINT LeftFingerBase
								{
									OFFSET 0.000000 0.000000 0.000000
									CHANNELS 3 Zrotation Yrotation Xrotation
									JOINT LeftHandIndex1
									{
										OFFSET 0.715260 -0.000000 -0.000000
										CHANNELS 3 Zrotation Yrotation Xrotation
										End Site
										{
											OFFSET 0.000000 0.000000 0.000000
										}
									}
								}
								JOINT LThumb
								{
									OFFSET 0.000000 0.000000 0.000000
									CHANNELS 3 Zrotation Yrotation Xrotation
									End Site
									{
										OFFSET 0.000000 0.000000 0.000000
									}
								}
							}
						}
					}
				}
				JOINT RightShoulder
				{
					OFFSET 0.000000 0.000000 0.000000
					CHANNELS 3 Zrotation Yrotation Xrotation
					JOINT RightArm
					{
						OFFSET -3.136600 1.374050 -0.404650
						CHANNELS 3 Zrotation Yrotation Xrotation
						JOINT RightForeArm
						{
							OFFSET -5.241900 -0.000000 -0.000000
							CHANNELS 3 Zrotation Yrotation Xrotation
							JOINT RightHand
							{
								OFFSET -3.444170 -0.000000 -0.000000
								CHANNELS 3 Zrotation Yrotation Xrotation
								JOINT RightFingerBase
								{
									OFFSET 0.000000 0.000000 0.000000
									CHANNELS 3 Zrotation Yrotation Xrotation
									JOINT RightHandIndex1
									{
										OFFSET -0.622530 -0.000000 -0.000000
										CHANNELS 3 Zrotation Yrotation Xrotation
										End Site
										{
											OFFSET 0.000000 0.000000 0.000000
										}
									}
								}
								JOINT RThumb
								{
									OFFSET 0.000000 0.000000 0.000000
									CHANNELS 3 Zrotation Yrotation Xrotation
									End Site
									{
										OFFSET 0.000000 0.000000 0.000000
									}
								}
							}
						}
					}
				}
			}
		}
	}
}
}
MOTION
Frames: 15
Frame Time: 0.008333
2.318468 16.168797 2.805486 -13.476857 -86.345156 34.141385 5.200812 -4.592832 -1.660233 0.036778 -5.040264 -4.016888 -8.566974 -5.115026 -4.350713 14.129581 -10.704427 -2.238452 -3.772631 -0.338127 1.485092 0.000000 0.000000 0.000000 17.804233 -7.399338 -6.009558 -81.998289 -60.023044 11.847183 178.765657 -66.744574 179.638094 19.480491 -17.372893 -3.320068 -0.319253 1.483845 -0.000000 0.000000 0.000000 0.000000 0.000000 0.000000 0.000000 13.104023 -10.359059 1.397894 64.305515 -4.268971 -5.014907 -179.640854 69.270732 179.835761 -20.657225 12.703417 -2.483658 0.296999 -0.682309 0.000000 0.000000 0.000000 0.000000 0.000000 0.000000 0.000000 
2.296711 16.195048 2.817667 -7.524307 -83.371674 28.387125 5.023212 -4.457686 -1.880905 0.015423 -4.901698 -4.114849 -8.489273 -4.984639 -4.517378 14.039253 -10.647792 -2.197381 -3.725147 -0.336070 1.501279 0.000000 0.000000 0.000000 17.520348 -7.568118 -6.213960 -85.012237 -59.337707 15.614486 178.891677 -67.382247 179.639574 19.579654 -17.319330 -3.328910 -0.331480 1.482478 -0.000000 0.000000 0.000000 0.000000 0.000000 0.000000 0.000000 12.803971 -9.920027 1.652204 63.749546 -6.837234 -6.104317 -179.674400 68.880768 179.837874 -20.852795 12.872862 -2.539426 0.304435 -0.678508 0.000000 0.000000 0.000000 0.000000 0.000000 0.000000 0.000000 
2.273050 16.226228 2.827569 -3.677393 -80.201954 24.784457 4.617546 -4.371029 -2.114409 -0.037204 -4.792926 -4.210175 -8.361436 -4.886946 -4.667656 13.896585 -10.577439 -2.143996 -3.653032 -0.332667 1.520769 0.000000 0.000000 0.000000 17.188602 -7.732697 -6.412982 -87.833761 -58.578338 19.287805 179.011611 -68.059532 179.641957 19.647154 -17.276606 -3.334273 -0.343889 1.480862 -0.000000 0.000000 0.000000 0.000000 0.000000 0.000000 0.000000 12.359615 -9.469912 1.904624 63.130372 -9.252667 -7.213878 -179.711073 68.471974 179.840560 -20.902909 13.007398 -2.571015 0.309865 -0.675699 0.000000 0.000000 0.000000 0.000000 0.000000 0.000000 0.000000 
2.247206 16.261518 2.835680 -0.905221 -76.921347 22.316424 4.032702 -4.304600 -2.352044 -0.113847 -4.688432 -4.300875 -8.184014 -4.795566 -4.796756 13.700826 -10.485538 -2.086317 -3.556022 -0.327721 1.541074 0.000000 0.000000 0.000000 16.814287 -7.867301 -6.597906 -90.431057 -57.779790 22.833649 179.122511 -68.772530 179.645247 19.680659 -17.252757 -3.337054 -0.355990 1.478934 -0.000000 0.000000 0.000000 0.000000 0.000000 0.000000 0.000000 11.775484 -8.986739 2.158060 62.408188 -11.517316 -8.375410 -179.753898 68.066882 179.844018 -20.784655 13.076018 -2.569130 0.313168 -0.673213 0.000000 0.000000 0.000000 0.000000 0.000000 0.000000 0.000000 
2.219507 16.300186 2.842297 1.247334 -73.579147 20.526577 3.301250 -4.247001 -2.576024 -0.210593 -4.578580 -4.382532 -7.961147 -4.699787 -4.899486 13.456894 -10.369938 -2.032537 -3.435471 -0.321158 1.559489 0.000000 0.000000 0.000000 16.396111 -7.960063 -6.760133 -92.765720 -56.996598 26.231313 179.222741 -69.515764 179.649334 19.686484 -17.239627 -3.336965 -0.367672 1.476239 -0.000000 0.000000 0.000000 0.000000 0.000000 0.000000 0.000000 11.069709 -8.462458 2.415445 61.546056 -13.637192 -9.616565 -179.805065 67.686432 179.848283 -20.510317 13.064587 -2.532370 0.314780 -0.670494 0.000000 0.000000 0.000000 0.000000 0.000000 0.000000 0.000000 
2.190126 16.341401 2.847777 3.005663 -70.216447 19.191860 2.450744 -4.191216 -2.774941 -0.323973 -4.458179 -4.452608 -7.696379 -4.593629 -4.973561 13.170612 -10.231245 -1.988971 -3.294033 -0.313030 1.573914 0.000000 0.000000 0.000000 15.935841 -8.008083 -6.895712 -94.823120 -56.272653 29.471837 179.312046 -70.281298 179.654161 19.665583 -17.233855 -3.333313 -0.378689 1.472516 -0.000000 0.000000 0.000000 0.000000 0.000000 0.000000 0.000000 10.267040 -7.894880 2.680504 60.498478 -15.634366 -10.944803 -179.866334 67.350826 179.853226 -20.131776 12.974467 -2.468331 0.315888 -0.667075 -0.000000 0.000000 0.000000 0.000000 0.000000 0.000000 0.000000 
2.159755 16.384411 2.852465 4.489839 -66.872377 18.184851 1.505242 -4.131333 -2.935863 -0.451119 -4.323188 -4.508877 -7.393334 -4.472318 -5.020124 12.849056 -10.074260 -1.960492 -3.135308 -0.303477 1.582688 0.000000 0.000000 0.000000 15.438496 -8.013923 -7.004877 -96.604482 -55.642982 32.551823 179.390261 -71.062787 179.659707 19.614145 -17.235829 -3.325600 -0.388546 1.467642 -0.000000 0.000000 0.000000 0.000000 0.000000 0.000000 0.000000 9.397041 -7.287403 2.956836 59.217891 -17.535079 -12.340028 -179.938689 67.080137 179.858568 -19.728169 12.823638 -2.391004 0.318178 -0.662731 -0.000000 0.000000 0.000000 0.000000 0.000000 0.000000 0.000000 
2.128900 16.428382 2.856568 5.774191 -63.587793 17.425713 0.488946 -4.061150 -3.048225 -0.588894 -4.169632 -4.549768 -7.054921 -4.331139 -5.041578 12.497146 -9.908490 -1.950532 -2.962616 -0.292640 1.584604 0.000000 0.000000 0.000000 14.907540 -7.982823 -7.091019 -98.123711 -55.133547 35.470302 179.456736 -71.850649 179.665848 19.532735 -17.242181 -3.313131 -0.396871 1.461458 -0.000000 0.000000 0.000000 0.000000 0.000000 0.000000 0.000000 8.483820 -6.649464 3.247510 57.662423 -19.359791 -13.756354 179.977821 66.894176 179.863955 -19.382004 12.644331 -2.316882 0.323345 -0.657598 -0.000000 0.000000 0.000000 0.000000 0.000000 0.000000 0.000000 
2.098334 16.472545 2.860332 6.900537 -60.403330 16.861708 -0.570427 -3.974030 -3.105269 -0.732893 -3.993611 -4.574225 -6.682357 -4.165450 -5.039968 12.112990 -9.747309 -1.961418 -2.777915 -0.280588 1.578875 0.000000 0.000000 0.000000 14.340162 -7.919235 -7.158554 -99.401878 -54.760748 38.225056 179.510278 -72.638027 179.672383 19.426617 -17.244005 -3.295111 -0.403394 1.453642 -0.000000 0.000000 0.000000 0.000000 0.000000 0.000000 0.000000 7.536668 -5.995548 3.554439 55.804553 -21.108491 -15.128711 179.884323 66.827396 179.869091 -19.155507 12.481219 -2.261353 0.332465 -0.652127 -0.000000 0.000000 0.000000 0.000000 0.000000 0.000000 0.000000 
2.068966 16.516140 2.863752 7.899061 -57.356836 16.446630 -1.650496 -3.864693 -3.100984 -0.879340 -3.792296 -4.581395 -6.275921 -3.971728 -5.018626 11.694707 -9.602871 -1.993018 -2.582947 -0.267411 1.565472 0.000000 0.000000 0.000000 13.738574 -7.826711 -7.213823 -100.471893 -54.528315 40.813436 179.550140 -73.417034 179.679271 19.284673 -17.248428 -3.270942 -0.407206 1.444413 -0.000000 0.000000 0.000000 0.000000 0.000000 0.000000 0.000000 6.562684 -5.340254 3.877547 53.611793 -22.764700 -16.372719 179.782692 66.912142 179.873785 -19.090650 12.365447 -2.234116 0.346213 -0.646662 -0.000000 0.000000 0.000000 0.000000 0.000000 0.000000 0.000000 
2.041556 16.558531 2.866940 8.783373 -54.486677 16.152958 -2.720006 -3.728145 -3.038276 -1.021754 -3.563824 -4.571067 -5.833936 -3.747472 -4.976422 11.228367 -9.485153 -2.043982 -2.376773 -0.253041 1.544830 0.000000 0.000000 0.000000 13.090912 -7.700864 -7.260430 -101.361541 -54.434959 43.228248 179.574983 -74.181782 179.686274 19.112601 -17.248170 -3.240122 -0.407993 1.433533 -0.000000 0.000000 0.000000 0.000000 0.000000 0.000000 0.000000 5.541911 -4.698501 4.215356 51.077539 -24.270817 -17.411788 179.676591 67.206223 179.878097 -19.178489 12.332390 -2.239570 0.363907 -0.641743 0.000000 0.000000 0.000000 0.000000 0.000000 0.000000 0.000000 
2.016838 16.599007 2.869698 9.571220 -51.822097 15.943886 -3.759386 -3.563674 -2.918256 -1.155530 -3.309648 -4.542446 -5.354315 -3.493640 -4.912269 10.702614 -9.397890 -2.111210 -2.158880 -0.237466 1.517905 0.000000 0.000000 0.000000 12.395014 -7.533255 -7.302999 -102.104903 -54.469709 45.461029 179.583792 -74.927237 179.693290 18.902926 -17.250894 -3.202647 -0.404892 1.421193 -0.000000 0.000000 0.000000 0.000000 0.000000 0.000000 0.000000 4.460029 -4.083073 4.564373 48.185511 -25.549722 -18.170430 179.570812 67.774601 179.882256 -19.386018 12.385870 -2.274622 0.384389 -0.637311 0.000000 0.000000 0.000000 0.000000 0.000000 0.000000 0.000000 
1.995707 16.637138 2.872173 10.255603 -49.394446 15.808926 -4.734222 -3.370588 -2.753358 -1.272392 -3.032120 -4.496209 -4.834972 -3.212469 -4.821711 10.096219 -9.332814 -2.188602 -1.927512 -0.220643 1.486615 0.000000 0.000000 0.000000 11.632260 -7.306537 -7.341790 -102.725055 -54.620287 47.499840 179.576045 -75.647647 179.700085 18.661585 -17.253783 -3.159114 -0.397633 1.407311 -0.000000 0.000000 0.000000 0.000000 0.000000 0.000000 0.000000 3.284410 -3.498291 4.920648 44.945820 -26.491632 -18.606540 179.472953 68.709474 179.886675 -19.634515 12.526600 -2.330488 0.405343 -0.633330 0.000000 0.000000 0.000000 0.000000 0.000000 0.000000 0.000000 
1.978477 16.672434 2.874045 10.854856 -47.222889 15.717067 -5.632203 -3.154818 -2.552826 -1.368438 -2.738403 -4.432188 -4.275308 -2.911349 -4.700250 9.394736 -9.273305 -2.269782 -1.682717 -0.202660 1.452921 0.000000 0.000000 0.000000 10.798704 -7.000396 -7.377961 -103.243971 -54.869231 49.331426 179.551358 -76.338315 179.706446 18.393187 -17.260126 -3.110716 -0.385864 1.391900 -0.000000 0.000000 0.000000 0.000000 0.000000 0.000000 0.000000 2.000216 -2.946997 5.278067 41.373651 -26.982170 -18.700365 179.393515 70.121100 179.891778 -19.835173 12.728739 -2.392081 0.424270 -0.629142 0.000000 0.000000 0.000000 0.000000 0.000000 0.000000 0.000000 
1.965725 16.704563 2.875398 11.363372 -45.322530 15.657118 -6.428465 -2.922635 -2.327551 -1.437440 -2.436788 -4.351260 -3.677782 -2.599338 -4.545117 8.582935 -9.191654 -2.346009 -1.426099 -0.183767 1.419560 0.000000 0.000000 0.000000 9.883393 -6.592779 -7.410145 -103.677530 -55.198628 50.943667 179.510570 -76.993841 179.712130 18.108327 -17.270051 -3.059349 -0.369644 1.374969 -0.000000 0.000000 0.000000 0.000000 0.000000 0.000000 0.000000 0.597458 -2.424115 5.629605 37.505818 -26.913949 -18.467204 179.347206 72.139659 179.897852 -19.898980 12.959067 -2.442320 0.438664 -0.624017 -0.000000 0.000000 0.000000 0.000000 0.000000 0.000000 0.000000 
